<svg xmlns="http://www.w3.org/2000/svg" viewBox="0 0 1200 800" role="img" aria-labelledby="title desc">
  <title id="title">Component lab overview</title>
  <desc id="desc">Illustrated design system dashboard.</desc>
  <rect width="1200" height="800" fill="#f3efe4"/>
  <rect x="70" y="70" width="1060" height="660" fill="#ffffff" stroke="#1d3557" stroke-width="8"/>
  <rect x="70" y="70" width="1060" height="70" fill="#1d3557"/>
  <text x="110" y="116" fill="#ffffff" font-family="Tahoma, sans-serif" font-size="30" font-weight="700">Component Lab</text>
  <rect x="110" y="180" width="250" height="500" fill="#f4f4f4"/>
  <rect x="400" y="180" width="680" height="150" fill="#edf2f4"/>
  <rect x="400" y="360" width="210" height="140" fill="#e9c46a"/>
  <rect x="635" y="360" width="210" height="140" fill="#2a9d8f"/>
  <rect x="870" y="360" width="210" height="140" fill="#e76f51"/>
  <rect x="400" y="534" width="680" height="146" fill="#f7f7f7"/>
  <g fill="#3c3c3c">
    <rect x="130" y="210" width="190" height="18"/>
    <rect x="130" y="246" width="162" height="18"/>
    <rect x="130" y="282" width="178" height="18"/>
    <rect x="430" y="212" width="220" height="20"/>
    <rect x="430" y="248" width="590" height="16"/>
    <rect x="430" y="278" width="530" height="16"/>
  </g>
</svg>
