<svg xmlns="http://www.w3.org/2000/svg" viewBox="0 0 1200 800" role="img" aria-labelledby="title desc">
  <title id="title">Projects explorer</title>
  <desc id="desc">Illustrated preview of the retro portfolio project explorer.</desc>
  <rect width="1200" height="800" fill="#c0c0c0"/>
  <rect x="36" y="40" width="1128" height="720" fill="#c0c0c0" stroke="#ffffff" stroke-width="6"/>
  <rect x="42" y="46" width="1116" height="42" fill="#000080"/>
  <text x="66" y="74" fill="#ffffff" font-family="Tahoma, sans-serif" font-size="24" font-weight="700">Projects</text>
  <rect x="66" y="120" width="220" height="590" fill="#efefef" stroke="#808080" stroke-width="4"/>
  <rect x="320" y="120" width="804" height="590" fill="#efefef" stroke="#808080" stroke-width="4"/>
  <rect x="86" y="152" width="180" height="56" fill="#000080" opacity="0.12"/>
  <text x="98" y="186" fill="#111111" font-family="Tahoma, sans-serif" font-size="22">Retro Portfolio</text>
  <text x="98" y="252" fill="#111111" font-family="Tahoma, sans-serif" font-size="22">Component Lab</text>
  <text x="98" y="318" fill="#111111" font-family="Tahoma, sans-serif" font-size="22">Motion Notes</text>
  <rect x="350" y="156" width="744" height="260" fill="#d6d6d6"/>
  <rect x="382" y="190" width="300" height="180" fill="#008080"/>
  <rect x="706" y="190" width="356" height="26" fill="#d0d0d0"/>
  <rect x="706" y="232" width="330" height="18" fill="#d0d0d0"/>
  <rect x="706" y="266" width="348" height="18" fill="#d0d0d0"/>
  <rect x="706" y="300" width="280" height="18" fill="#d0d0d0"/>
  <rect x="350" y="454" width="228" height="216" fill="#dcdcdc"/>
  <rect x="602" y="454" width="228" height="216" fill="#dcdcdc"/>
  <rect x="854" y="454" width="228" height="216" fill="#dcdcdc"/>
</svg>
